<svg xmlns="http://www.w3.org/2000/svg" viewBox="0 0 100 100" width="100" height="100">
  <g fill="#ec008c">
    <!-- beam -->
    <path d="M33 36 L85 23 L85 35 L33 48 Z"/>
    <!-- stems -->
    <rect x="33" y="42" width="8" height="42" rx="3"/>
    <rect x="77" y="29" width="8" height="42" rx="3"/>
    <!-- note heads -->
    <ellipse cx="26" cy="80" rx="15" ry="12"/>
    <ellipse cx="70" cy="68" rx="15" ry="12"/>
    <!-- sparkles -->
    <path d="M83 4 l3.2 8.3 8.3 3.2 -8.3 3.2 -3.2 8.3 -3.2 -8.3 -8.3 -3.2 8.3 -3.2 Z"/>
    <path d="M70 18 l2.1 5.5 5.5 2.1 -5.5 2.1 -2.1 5.5 -2.1 -5.5 -5.5 -2.1 5.5 -2.1 Z"/>
    <path d="M93 25 l2.1 5.5 5.5 2.1 -5.5 2.1 -2.1 5.5 -2.1 -5.5 -5.5 -2.1 5.5 -2.1 Z"/>
  </g>
</svg>
